    <svg viewBox="0 0 310 106.87776384803985" preserveAspectRatio="xMidYMid meet">
        <defs>
            <linearGradient id="LinearGradient">
                <stop stop-color="#00ff8f" offset="0"></stop>
                <stop stop-color="#00a1ff" offset="1"></stop>
            </linearGradient>
        </defs>
        <g featurekey="symbolFeature-0" transform="matrix(0.11349449866174303,0,0,0.11349449866174303,-6.75292267037371,-3.302692335560783)" fill="url(#LinearGradient)">
            <g xmlns="http://www.w3.org/2000/svg">
                <path d="M146.6,312.2l273.4-157.9h0c7.6,3.1,15.8,4.8,24.4,4.8c35.8,0,65-29.2,65-65c0-35.8-29.2-65-65-65   c-35.8,0-64.8,29-65,64.7v0L97,256.9c-23.1,13.4-37.5,38.3-37.5,65.1v347.2c0,26.7,14.4,51.7,37.6,65.1l318,183.6   c4.4,2.5,9.4,3.9,14.4,3.9c5,0,10-1.3,14.4-3.9c9-5.2,14.4-14.6,14.4-25v-9.3c0-15.2-8.2-29.3-21.3-36.9L146.6,679   c-8.9-5.2-14.5-14.8-14.5-25.1V337.3C132.1,327,137.7,317.3,146.6,312.2z M405.4,78.9L405.4,78.9c6.1-15.7,21.3-26.7,39.1-26.7   c2.2,0,4.3,0.2,6.4,0.5h0c2.6,0.4,5.1,1,7.4,1.9c16.4,5.7,28.1,21.3,28.1,39.6c0,20.1-14.2,37-33.1,41c-2.8,0.6-5.8,0.9-8.8,0.9   c-23.2,0-42-18.8-42-42C402.5,88.7,403.6,83.6,405.4,78.9z"></path>
                <path d="M903.6,276.8L585.4,93.1c-4.5-2.6-9.5-3.9-14.6-3.9c-5.1,0-10.1,1.4-14.6,3.9c-9.1,5.3-14.6,14.7-14.6,25.3   v12.9c0,12.6,6.8,24.3,17.7,30.6L854,332c8.6,4.9,13.9,14.1,13.9,24v318c0,9.9-5.3,19.1-13.9,24l-266.4,150   c-8.9-4.6-19-7.2-29.6-7.2c-35.8,0-65,29.2-65,65c0,35.8,29.2,65,65,65c32.5,0,59.5-23.9,64.3-55.1l281.4-162.5   c22.8-13.2,36.9-37.6,36.9-63.9V340.7C940.5,314.4,926.4,289.9,903.6,276.8z M587,936.1c-4.9,4.7-10.8,8.2-17.5,10.1   c-3.7,1.1-7.6,1.6-11.6,1.6c-0.4,0-0.9,0-1.3,0c-22.6-0.7-40.7-19.2-40.7-41.9c0-23.2,18.8-42,42-42c2.2,0,4.4,0.2,6.5,0.5   c20.1,3.1,35.5,20.5,35.5,41.5C599.9,917.8,595,928.5,587,936.1z"></path>
                <path d="M689.4,551L196.9,681.6c-8.6,2.3-16.8-13.8-12-23.6l11.3-23.3c9-18.6,22.7-31,38.9-35.3l488.9-129.6   c8.6-2.3,16.8,13.8,12,23.6l-13.2,27.4C715,536.7,703.3,547.4,689.4,551z"></path>
                <path d="M693,669.3l-304.9,80.8c-5.3,1.4-12.1-15-10-24.2l5.1-21.6c4-17.3,11.7-28.1,21.8-30.7l302.7-80.2   c5.3-1.4,12.1,15,10,24.2l-5.9,25.4C708.2,657.8,701.6,667,693,669.3z"></path>
                <path d="M614.1,358.5l-304.9,80.8c-5.3,1.4-12.1-15-10-24.2l5.1-21.6c4-17.3,11.7-28.1,21.8-30.7l302.7-80.2   c5.3-1.4,12.1,15,10,24.2l-5.9,25.4C629.2,347,622.7,356.2,614.1,358.5z"></path>
                <path d="M778,418.1L285.6,548.6c-8.6,2.3-16.8-13.8-12-23.6l11.3-23.3c9-18.6,22.7-31,38.9-35.3l488.9-129.6   c8.6-2.3,16.8,13.8,12,23.6l-13.2,27.4C803.7,403.8,792,414.4,778,418.1z"></path>
            </g>
        </g>
        <g featurekey="nameFeature-0" transform="matrix(1.3713954425296204,0,0,1.3713954425296204,119.99999705730463,14.420949551559383)" fill="url(#LinearGradient)">
            <path d="M11.6 11.36 l6.68 0 l0 28.56 l-3.76 0 l0 -22.6 l-3.56 22.68 l-1.48 0 l-0.36 -0.08 l-0.32 0.08 l-1.48 0 l-3.52 -22.68 l0 22.6 l-3.8 0 l0 -28.56 l6.72 0 l2.44 16.16 z M33.135000000000005 17.36 l3.96 0 l-5.64 23.4 s-0.88 5.6 -6.2 5.72 l-0.16 0 l0 0 l0 0 l0 0 l0 -3.88 c0.4 0 0.84 -0.12 1.24 -0.32 c0 0 1.92 -0.56 1.52 -4 l-5.04 -20.92 l4 0 l3.16 13.08 z M47.150000000000006 11.36 c2.96 0 5.36 2.44 5.36 5.4 l0 11.16 l-0.04 6.6 c0 2.96 -2.44 5.36 -5.4 5.36 s-5.36 -2.4 -5.36 -5.36 l0 -4.88 l3.8 0 l0 4.88 c0 0.88 0.72 1.56 1.56 1.56 c0.88 0 1.6 -0.68 1.6 -1.56 l0.04 -6.64 l0 -1.12 l-3.72 0 l0 -3.8 l3.72 0 l0 -6.2 c0 -0.88 -0.72 -1.6 -1.56 -1.6 l-0.16 0 c-0.84 0 -1.56 0.72 -1.56 1.6 l0 4.12 l-3.8 0 l0 -4.12 c0 -2.96 2.4 -5.4 5.36 -5.4 l0.16 0 z M62.205 23.4 c2.72 0 4.96 2.24 4.96 5 l0 6.52 c0 2.8 -2.24 5.08 -5.04 5.08 s-5.08 -2.28 -5.08 -5.08 l0 -16.8 c0 -3.6 2.96 -6.56 6.6 -6.56 l0 3.64 c-1.64 0 -2.96 1.32 -2.96 2.92 l0 5.28 l1.52 0 z M63.525000000000006 34.92 l0 -6.52 c0 -0.76 -0.6 -1.36 -1.32 -1.36 l-1.52 0 l0 7.88 c0 0.8 0.64 1.44 1.44 1.44 c0.76 0 1.4 -0.64 1.4 -1.44 z M78.86 23.48 c1.92 0.04 3.48 1.6 3.48 3.52 l0 7.64 c0 2.96 -2.4 5.32 -5.32 5.32 s-5.32 -2.36 -5.32 -5.32 l0 -3.36 l3.84 0 l0 3.36 c0 0.84 0.68 1.52 1.48 1.52 c0.84 0 1.48 -0.68 1.48 -1.52 l0 -7.32 l-3.2 -0.04 l-3.6 0 l0 -15.64 l10 0 l0 3.84 l-6.16 0 l0 8 l3.32 0 z M102.555 11.440000000000001 l3.84 0 l-3.72 28.56 l-3.96 0 l-2 -14.32 l-1.88 14.32 l-3.96 0 l-4 -28.56 l3.84 0 l2.08 14.72 l1.92 -14.72 l3.84 0 l2.08 14.72 z M119.73 32.76 l0 7.2 l-3.68 0 l0 -0.12 c-0.36 0.08 -0.72 0.12 -1.12 0.12 c-2.8 0 -5.04 -2.24 -5.04 -5.04 l0 -4.28 c0 -1.12 0.44 -2.16 1.24 -2.96 c0.76 -0.76 1.8 -1.2 2.92 -1.2 l1.92 0 l0 -4.32 c0 -0.6 -0.52 -1.12 -1.12 -1.12 l-0.2 0 c-0.64 0 -1.12 0.52 -1.12 1.12 l0 3.04 l-3.72 0 l0 -3.04 c0 -2.68 2.16 -4.84 4.84 -4.84 l0.2 0 c2.68 0 4.84 2.16 4.84 4.84 z M114.93 36.24 c0.6 0 1.12 -0.48 1.12 -1.08 l-0.04 -4.92 l-1.96 -0.04 c-0.16 0 -0.24 0.08 -0.32 0.12 c-0.04 0.08 -0.12 0.16 -0.12 0.32 l0 4.28 c0 0.72 0.6 1.32 1.32 1.32 z M134.585 17.36 l3.96 0 l-5.64 23.4 s-0.88 5.6 -6.2 5.72 l-0.16 0 l0 0 l0 0 l0 0 l0 -3.88 c0.4 0 0.84 -0.12 1.24 -0.32 c0 0 1.92 -0.56 1.52 -4 l-5.04 -20.92 l4 0 l3.16 13.08 z"></path>
        </g>
    </svg>